<svg version="1.1" xmlns="http://www.w3.org/2000/svg" viewBox="0 0 751 408.5" width="751" height="408.5">
  <!-- svg-source:excalidraw -->
  
  <defs>
    <style>
      @font-face {
        font-family: "Virgil";
        src: url("https://excalidraw.com/FG_Virgil.woff2");
      }
      @font-face {
        font-family: "Cascadia";
        src: url("https://excalidraw.com/Cascadia.woff2");
      }
    </style>
  </defs>
  <g transform="translate(13 14.5) rotate(0 80 59.5)"><path d="M-1.830345155671239 -0.5910094063729048 C35.64560968987644 -0.8450412448495626, 73.67112317495048 2.16987320818007, 158.08535593561828 -1.783631769940257 M0.43818207178264856 -0.5132129797711968 C35.18291917536408 1.2462083524093033, 68.99780188594013 -0.3909957880154251, 160.54340802226216 0.848642616532743 M161.48457974009216 -1.8513660114258528 C160.6702746284101 46.90047265244648, 157.98429675222374 89.61254881937057, 161.9638165216893 118.38731846399605 M160.44585834536701 0.028189211152493954 C159.68702853213065 42.39152014544234, 159.67838773618453 86.4266335733235, 159.31687809620053 118.02258169557899 M158.52034318260849 118.48576769419014 C128.83592955581844 117.76595459915697, 93.66530796699226 119.54702429510652, 0.9934745412319899 119.00957980938256 M159.82024242077023 119.9218929996714 C125.28115749452263 118.54852357264608, 88.23732803855091 117.36958092208951, 0.32830230984836817 118.48079869057983 M-0.9601764101535082 118.32450548000634 C2.1956621687021105 87.16964639248326, -0.6237194855604321 57.45805703457444, -0.36161971278488636 0.2548441607505083 M0.9342896202579141 118.0942594697699 C0.9600319659430534 74.10931387068703, -0.6606483960431069 29.131783089414228, 0.6781750479713082 0.18774062301963568" stroke="#000000" stroke-width="1" fill="none"></path></g><g transform="translate(74 59.5) rotate(0 18.5 15.5)"><text x="18.5" y="23" font-family="Virgil, Segoe UI Emoji" font-size="20px" fill="#000000" text-anchor="middle" style="white-space: pre;" direction="ltr">Web</text></g><g transform="translate(198 12) rotate(0 80 59.5)"><path d="M-0.6595160979777575 0.4984345156699419 C45.495025707408786 0.8102330986410378, 90.1593312304467 -0.8913060005754234, 160.04043334536254 -0.24198600463569164 M0.7228980818763375 -0.9866897473111749 C40.24776938650757 -0.6702373558655381, 81.62635563407093 -0.7622640365734696, 159.9093274930492 -0.8525830218568444 M159.72792619280517 -1.2747471015900373 C157.72529771090484 45.82262785388157, 159.98538764477706 93.80675398427994, 159.5688039045781 120.73327788896859 M159.2814128259197 -0.9214800307527184 C158.88309802184813 30.339756956603384, 158.89708982477896 59.827097726613296, 159.52111162338406 118.57917237188667 M159.63039648346603 117.86865338869393 C109.0947121810168 117.90692649818956, 54.798649994656444 120.72203092314302, -1.949626149609685 120.59613219089806 M160.33883752021939 119.02593850996345 C120.90191972348839 118.60690124388785, 82.23601423297077 118.29711066242308, 0.6866457918658853 118.07901915814728 M0.506085691973567 120.26243725605309 C0.256332922419533 91.48230173410847, 1.359093296965584 63.05632461365312, 0.8945059757679701 -1.30204370431602 M0.10797123704105616 118.87958320882171 C-1.1462927747052163 77.41869734646752, 0.005903602810576558 35.152360090985894, -0.2787318667396903 -0.6659393915906549" stroke="#000000" stroke-width="1" fill="none"></path></g><g transform="translate(394 11) rotate(0 80 59.5)"><path d="M1.4014742355793715 -1.4371743481606245 C60.02326305024326 -1.0487087424844503, 124.23391714505851 -1.0207251366227865, 159.2981094699353 -0.957776753231883 M0.013959006406366825 -0.18480175826698542 C40.7010846445337 1.5805725997313858, 81.97581194434316 0.26904823835939173, 160.84984825644642 -0.9748130748048425 M159.28223317675292 0.6776750404387712 C159.39558418990111 45.35261542750523, 159.7059365749452 91.56958042699844, 159.74264824204147 120.37329158373177 M159.0990087846294 0.2530428459867835 C159.838420311315 24.29472145130858, 159.33436096678489 49.58642962053418, 159.80017913971096 119.44725298788399 M161.4368091803044 119.21594247408211 C122.17551605217159 118.40431858040392, 85.54544660262764 120.70871133543551, 0.05542546324431896 118.44253626652062 M159.8895114818588 119.60874080564827 C123.18245971295983 117.44070222731679, 85.82405696902424 117.01590615268796, -0.817321970127523 118.0511799743399 M-0.7703568357974291 117.10517922230065 C-1.8458287854585795 90.44369103731587, -1.9213215847406535 60.47913469132035, 0.552053926512599 0.19508668966591358 M-0.604858829639852 119.85943445470184 C-0.04319957497529692 77.30625089528039, 0.9708284675795584 35.62779172398149, -0.390441938303411 0.9771961560472846" stroke="#000000" stroke-width="1" fill="none"></path></g><g transform="translate(581 10) rotate(0 80 59.5)"><path d="M0.8945059757679701 -1.30204370431602 C51.08289749734104 1.1724290195852518, 101.50590625219047 0.5356558505445719, 159.75916641764343 -1.2778539340943098 M-0.2787318667396903 -0.6659393915906549 C54.141607196070254 -0.7356894308701158, 107.29346881899983 0.564400435052812, 160.52742944750935 -0.4531392762437463 M158.1023599486798 -0.9829172771424055 C160.55537199140525 40.97056788159534, 158.1849000966642 81.73829444963485, 159.10623967461288 120.29533323831856 M160.09754334483296 0.5147984316572547 C160.53863388787025 29.78087320616469, 160.09868053088897 60.72532227113843, 159.760562912561 119.13235223200172 M161.95439231209457 119.47129711695015 C101.58967701904476 118.15458956696094, 37.6425623577088 119.46268257834018, 1.3872252088040113 117.74805417843163 M160.10151268634945 119.11888277437538 C118.00442528817803 117.60081081744283, 75.20459531340748 118.68386920448393, 0.687949345447123 119.00285407807678 M-1.3021435160189867 119.23033824749291 C-0.3791434843931347 84.38815914215519, -0.13985509471036495 54.12450367268174, 1.0505483131855726 -0.9823742192238569 M-0.511056019924581 119.8148622205481 C-0.18789562108926483 84.37524559618905, -0.40053307536058136 49.55901058651506, -0.9571043690666556 -0.38499921653419733" stroke="#000000" stroke-width="1" fill="none"></path></g><g transform="translate(249 57) rotate(0 27.5 15.5)"><text x="0" y="23" font-family="Virgil, Segoe UI Emoji" font-size="20px" fill="#000000" text-anchor="start" style="white-space: pre;" direction="ltr">Mobile</text></g><g transform="translate(455 59) rotate(0 18 15.5)"><text x="18" y="23" font-family="Virgil, Segoe UI Emoji" font-size="20px" fill="#000000" text-anchor="middle" style="white-space: pre;" direction="ltr">API</text></g><g transform="translate(640.5 55) rotate(0 21.5 15.5)"><text x="21.5" y="23" font-family="Virgil, Segoe UI Emoji" font-size="20px" fill="#000000" text-anchor="middle" style="white-space: pre;" direction="ltr">FTP</text></g><g transform="translate(10 210.5) rotate(0 176 94)"><path d="M0.26659297203814314 0.9633932532069392 C108.80656034225798 2.7212300089035493, 220.00572771420437 2.6251622320131522, 352.69957265766044 -0.03201167338710353 M350.3239395003766 -1.1163773220032454 C353.16291490908714 42.15074697285891, 355.5934989225492 81.19402673952283, 351.01223695091903 187.68985781259835 M352.586757138549 186.7938332981688 C225.4020458528167 189.85035328444795, 99.96363317279048 188.7931818542029, -0.6246960792535611 189.08453275135457 M0.38211810402572155 189.22299942560494 C0.2717087494209409 115.66414361819625, 2.0786755906417964 43.473545333370566, -1.8219203371554613 -1.9165948312729597" stroke="#000000" stroke-width="1.5" fill="none" stroke-dasharray="12 8"></path></g><g transform="translate(107 164) rotate(0 72.5 15.5)"><text x="0" y="23" font-family="Virgil, Segoe UI Emoji" font-size="20px" fill="#000000" text-anchor="start" style="white-space: pre;" direction="ltr">Data Systems</text></g></svg>